<svg id="Layer_1" enable-background="new 0 0 512 512" height="512" viewBox="0 0 512 512" width="512" xmlns="http://www.w3.org/2000/svg"><g><g><path d="m488.101 168.621c-2.112-3.562-6.712-4.736-10.277-2.624-3.563 2.113-4.737 6.715-2.624 10.277 14.261 24.042 21.8 51.611 21.8 79.726 0 86.294-70.206 156.5-156.5 156.5s-156.5-70.206-156.5-156.5 70.206-156.5 156.5-156.5c44.56 0 87.141 19.085 116.826 52.363 2.757 3.091 7.499 3.361 10.589.604s3.361-7.498.604-10.589c-32.528-36.465-79.189-57.378-128.019-57.378-64.984 0-121.642 36.331-150.73 89.748-20.803-19.644-48.445-30.748-77.27-30.748-62.033 0-112.5 50.467-112.5 112.5s50.467 112.5 112.5 112.5c28.826 0 56.467-11.104 77.27-30.747 29.088 53.416 85.746 89.747 150.73 89.747 94.565 0 171.5-76.935 171.5-171.5 0-30.807-8.264-61.022-23.899-87.379zm-375.601 184.879c-53.762 0-97.5-43.738-97.5-97.5s43.738-97.5 97.5-97.5c26.577 0 51.995 10.893 70.351 30.004-2.231 5.191-4.214 10.512-5.931 15.95-15.46-19.417-38.903-30.954-64.419-30.954-16.632 0-32.676 4.95-46.398 14.315-3.421 2.335-4.302 7.001-1.967 10.422s7 4.303 10.422 1.967c11.22-7.657 24.34-11.705 37.943-11.705 25.056 0 47.665 13.607 59.48 35.639-1.95 10.329-2.981 20.977-2.981 31.862 0 10.886 1.031 21.534 2.98 31.862-11.814 22.033-34.42 35.638-59.48 35.638-37.22 0-67.5-30.28-67.5-67.5 0-12.144 3.277-24.057 9.476-34.453 2.122-3.558.958-8.161-2.6-10.283-3.558-2.123-8.162-.957-10.283 2.6-7.584 12.718-11.593 27.288-11.593 42.136 0 45.491 37.009 82.5 82.5 82.5 25.521 0 48.96-11.537 64.419-30.955 1.718 5.439 3.701 10.76 5.932 15.951-18.356 19.111-43.772 30.004-70.351 30.004z"/><path d="m255.883 369.349c24.611 18.417 53.871 28.151 84.617 28.151 78.023 0 141.5-63.477 141.5-141.5s-63.477-141.5-141.5-141.5-141.5 63.477-141.5 141.5c0 32.77 11.507 64.74 32.402 90.02 2.638 3.193 7.366 3.642 10.559 1.003s3.642-7.367 1.003-10.56c-18.678-22.597-28.964-51.173-28.964-80.463 0-69.752 56.748-126.5 126.5-126.5s126.5 56.748 126.5 126.5-56.748 126.5-126.5 126.5c-27.481 0-53.634-8.7-75.63-25.161-3.317-2.482-8.017-1.805-10.499 1.511-2.481 3.317-1.805 8.017 1.512 10.499z"/><path d="m348 157v-10c0-4.142-3.358-7.5-7.5-7.5s-7.5 3.358-7.5 7.5v10c0 4.142 3.358 7.5 7.5 7.5s7.5-3.358 7.5-7.5z"/><path d="m340.5 347.5c-4.142 0-7.5 3.358-7.5 7.5v10c0 4.142 3.358 7.5 7.5 7.5s7.5-3.358 7.5-7.5v-10c0-4.142-3.358-7.5-7.5-7.5z"/><path d="m284.505 174.014c1.389 2.406 3.91 3.751 6.502 3.751 1.272 0 2.562-.324 3.743-1.006 3.587-2.071 4.816-6.658 2.745-10.245l-5-8.661c-2.071-3.587-6.658-4.816-10.245-2.745s-4.816 6.658-2.745 10.245z"/><path d="m251.014 212.995c1.181.682 2.471 1.006 3.743 1.006 2.592 0 5.113-1.346 6.502-3.751 2.071-3.587.842-8.174-2.745-10.245l-8.661-5c-3.587-2.072-8.175-.842-10.245 2.745-2.071 3.587-.842 8.174 2.745 10.245z"/><path d="m224 256c0 4.142 3.358 7.5 7.5 7.5h10c4.142 0 7.5-3.358 7.5-7.5s-3.358-7.5-7.5-7.5h-10c-4.142 0-7.5 3.358-7.5 7.5z"/><path d="m432 256c0 4.142 3.358 7.5 7.5 7.5h10c4.142 0 7.5-3.358 7.5-7.5s-3.358-7.5-7.5-7.5h-10c-4.142 0-7.5 3.358-7.5 7.5z"/><path d="m246.11 318.001c1.272 0 2.562-.324 3.743-1.006l8.661-5c3.587-2.071 4.816-6.658 2.745-10.245s-6.659-4.816-10.245-2.745l-8.661 5c-3.587 2.071-4.816 6.658-2.745 10.245 1.389 2.406 3.91 3.751 6.502 3.751z"/><path d="m431.147 195.005-8.661 5c-3.587 2.071-4.816 6.658-2.745 10.245 1.389 2.406 3.91 3.751 6.502 3.751 1.272 0 2.562-.324 3.743-1.006l8.661-5c3.587-2.071 4.816-6.658 2.745-10.245s-6.658-4.816-10.245-2.745z"/><path d="m282.25 356.892c1.181.682 2.471 1.006 3.743 1.006 2.592 0 5.113-1.346 6.502-3.751l5-8.661c2.071-3.587.842-8.174-2.745-10.245-3.587-2.072-8.175-.842-10.245 2.745l-5 8.661c-2.071 3.587-.842 8.174 2.745 10.245z"/><path d="m389.993 177.765c2.592 0 5.113-1.346 6.502-3.751l5-8.661c2.071-3.587.842-8.174-2.745-10.245-3.587-2.072-8.175-.842-10.245 2.745l-5 8.661c-2.071 3.587-.842 8.174 2.745 10.245 1.181.682 2.471 1.006 3.743 1.006z"/><path d="m311 256c0 13.675 9.355 25.204 22 28.531v46.469c0 4.142 3.358 7.5 7.5 7.5s7.5-3.358 7.5-7.5v-46.469c12.645-3.327 22-14.856 22-28.531 0-16.266-13.234-29.5-29.5-29.5s-29.5 13.234-29.5 29.5zm29.5-14.5c7.995 0 14.5 6.505 14.5 14.5s-6.505 14.5-14.5 14.5-14.5-6.505-14.5-14.5 6.505-14.5 14.5-14.5z"/><path d="m61.998 263.5h29.292c3.096 8.729 11.432 15 21.21 15 12.407 0 22.5-10.093 22.5-22.5s-10.093-22.5-22.5-22.5c-9.778 0-18.114 6.271-21.21 15h-29.292c-4.142 0-7.5 3.358-7.5 7.5s3.357 7.5 7.5 7.5zm50.502-15c4.136 0 7.5 3.364 7.5 7.5s-3.364 7.5-7.5 7.5-7.5-3.364-7.5-7.5 3.364-7.5 7.5-7.5z"/></g></g></svg>